Patient4_TMGait_0pt6_02_left_31_EMG.mot
version=1
nRows=23
nColumns=33
inDegrees=no
endheader
time	1LAddLong	2LGlutMax	3LGlutMed	4LIliopsoas	5LSemiMemb	6LBicFemLong	7LRecFem	8LVastMed	9LVastLat	10LGasMed	11LTibAnt	12lTibPost	13LPeroneusLong	14LSol	15LExtDigLong	16LFlexDigLong	17RAddLong	18RGlutMax	19RGlutMed	20RIliopsoas	21RSemiMemb	22RBicFemLong	23RRecFem	24RVastMed	25RVastLat	26RGasMed	27RTibAnt	28RTibPost	29RPeroneusLong	30RSol	31RExtDigLong	32RFlexDigLong
39.16	0.017853	-0.002289	-0.055695	-0.010376	0.019684	-0.041656	-0.079651	0.003815	0.042877	-0.027618	0.059204	0.004578	-0.001678	-0.078735	0.00824	-0.00061	0.001678	-0.43884	-0.20187	-0.036316	-0.024261	-0.1358	-0.010834	-0.18631	0.16846	0.008698	1.0461	0.13077	0.12177	-0.392	-0.004272	-0.006714
39.161	0.010834	0.019836	-0.067902	-0.007019	0.018921	-0.028229	-0.074005	0.000305	0.046692	-0.007782	0.058899	-0.001678	-0.011597	-0.099792	0.009613	0.009918	0.01236	-0.43182	-0.26154	-0.075989	-0.031128	-0.1265	0.077209	-0.35797	0.15671	0.019684	-0.31998	0.037994	0.30884	-0.38391	-0.000305	0.000916
39.162	0.007324	-0.001984	-0.089111	0.005188	0.020905	-0.041504	-0.09079	0.004425	0.034332	-0.014801	-0.007172	0.002899	-0.010681	-0.10254	-0.000763	-0.001373	0.02594	-0.43366	-0.22064	-0.16785	-0.049133	-0.10834	0.18631	-0.23651	0.1152	0.011749	-1.0788	0.000916	0.10422	-0.27741	0.003204	-0.001221
39.163	0.00473	-0.007782	-0.076752	0.006714	0.02655	-0.052795	-0.098572	0.005341	0.040131	-0.01709	-0.019836	0.001221	-0.011597	-0.071411	0.000305	-0.000763	0.006714	-0.40039	-0.242	-0.19806	-0.045471	-0.044861	-0.08667	0.055695	0.097656	0.000305	-0.79636	-0.007629	0.021667	0.023499	-0.007324	-0.007477
39.164	-0.00351	0.027008	-0.04364	0.006866	0.032196	-0.032196	-0.099487	0.004578	0.035095	-0.019836	-0.014801	0.006714	-0.013275	-0.073547	-0.007324	-0.002289	-0.003357	-0.37735	-0.3305	-0.13168	-0.049591	-0.11505	-0.26642	0.26199	0.32257	-0.006714	-0.81024	-0.000305	-0.005798	0.1799	0	-0.01236
39.165	0.000305	0.023346	-0.046692	-0.000458	0.02533	-0.024414	-0.098572	0.016022	0.033417	-0.018311	-0.005951	0.000458	0.01358	-0.075073	0.005493	0.000763	0.00351	-0.35721	-0.67719	0.063629	-0.047607	-0.17441	-0.16785	0.43915	0.3537	-0.011292	-0.2388	0.003357	-0.063934	0.30548	-0.002441	-0.013275
39.166	-0.021515	0.005798	-0.054169	0.004578	0.015259	-0.009918	-0.11398	0.001221	0.028229	-0.025635	-0.01297	0.003967	0.036774	-0.070038	-0.013275	-0.000916	-0.003815	-0.28107	-0.71945	0.23651	-0.010834	-0.2803	-0.17105	0.42313	0.093079	-0.013885	-0.081329	0.000153	0.002594	0.224	-0.007477	-0.004883
39.167	0.047913	-0.000763	-0.068359	0.009155	-0.003967	-0.019226	-0.121	0.004883	0.029755	-0.023499	0.010681	0.005951	0.014801	-0.088501	0.03891	0.001678	0.002136	-0.16464	-0.41	0.20279	-0.029144	0.091248	-0.064545	0.26352	-0.35889	-0.012817	-0.17502	0.003662	0.089417	0.20187	-0.001678	-0.001526
39.168	0.053253	-0.00412	-0.088654	0.002594	0.010529	-0.052185	-0.11749	0.001678	0.027008	-0.016174	0.010834	-0.001373	-0.020447	-0.12512	0.032043	0.003204	0.021515	-0.090179	-0.38803	0.1236	-0.092773	0.32196	-0.020447	0.10178	-0.15259	-0.017395	-0.20355	-0.000916	0.096893	0.25452	-0.002136	0.004272
39.169	-0.016479	-0.015717	-0.032806	0.009613	0.025482	-0.059967	-0.12802	0.002289	0.023499	-0.030823	0.00473	0.005493	-0.023956	-0.096741	0.00412	-0.002747	0.043335	-0.072937	0.12711	0.048523	-0.071564	0.19363	-0.008392	0.016937	-0.034637	-0.018311	-0.32242	-0.00946	0.15091	0.22873	-0.001068	0.000153
39.17	-0.013885	-0.011139	-0.082245	0.005646	0.037231	-0.046234	-0.12314	-0.001068	0.005493	-0.037537	-0.003967	0.001831	-0.001526	-0.023956	-0.003967	0.008545	0.05661	-0.019073	0.50766	-0.005798	0.092926	0.24582	-0.021973	-0.005341	0.008392	-0.02121	-0.1622	-0.011597	0.14557	0.21973	-0.004272	0.000458
39.171	-0.00473	-0.010986	-0.099182	0.012665	0.029602	-0.037231	-0.12528	-0.004272	0.014343	-0.03067	-0.000153	0.000763	-0.037231	-0.040131	0.00351	0.000305	0.028687	0.032806	1.0622	-0.026398	0.19684	0.27466	-0.10834	0.001678	-0.04837	-0.013733	-0.15884	-0.012817	0.045929	0.20645	-0.001831	-0.009308
39.172	0.010071	-0.037231	-0.12497	0.005951	0.040588	-0.055084	-0.11673	-0.00412	0.013275	-0.013428	-0.002899	-0.000153	-0.052185	-0.10239	-0.008087	0.000153	0.009918	-0.066376	-0.10941	-0.007935	0.22644	0.13153	0.009155	0.030518	-0.043335	-0.007935	0.13473	-0.011444	-0.034332	0.12878	-0.003204	0.000153
39.173	0.00824	-0.015106	-0.065918	0.01236	0.028839	-0.059052	-0.12665	-0.00824	0.009918	-0.010376	-0.022888	0.002441	-0.025482	-0.10559	-0.000153	0.007019	-0.006714	-0.050049	-0.14999	-0.007629	-0.041809	0.14343	0.021057	0.088196	-0.010986	-0.002289	0.23422	-0.010986	-0.058594	0.070648	-0.001068	-0.006714
39.174	0.003357	-0.049896	0.080109	0.003052	0.010986	-0.077209	-0.13412	-0.007324	0.005493	-0.018158	-0.014191	0.004425	0.022736	-0.069275	0.009155	0.002899	0.015869	-0.030823	-0.034027	0.045471	-0.10071	0.26932	0.10117	0.087891	-0.065918	0	0.16663	-0.011139	-0.08194	0.058746	-0.004272	-0.011597
39.175	0.009766	-0.078888	0.11246	0.007324	0.008545	-0.077209	-0.12741	-0.005798	0.004425	-0.023499	-0.071869	0.000458	0.039825	-0.069885	-0.017853	0.00351	0.009766	-0.045013	0.21179	0.10223	0.046387	0.04425	0.074921	0.032196	-0.092468	-0.014343	0.10986	-0.010986	-0.062408	0.05127	-0.002441	-0.018005
39.176	0.010529	-0.059967	0.054474	-0.007477	0.020447	-0.038452	-0.12741	-0.006104	-0.002594	-0.022583	-0.034332	0.001526	0.032959	-0.056458	0.005035	0.000916	0	-0.078888	0.16098	0.079193	-0.14694	-0.039368	-0.089264	-0.11292	-0.088959	-0.00946	0.064392	-0.017548	-0.014801	0.090027	-0.00824	-0.016174
39.177	0.002899	-0.036469	0.024109	-0.003967	0.027008	-0.015411	-0.12497	-0.001526	0.000763	-0.034027	0.016022	0.001678	0.041656	-0.03479	0.047455	0.014954	-0.043945	-0.10223	0.13077	0.024414	0.12833	0.033112	-0.091095	-0.21942	0.011292	-0.016022	0.21729	-0.019073	-0.017548	0.1062	-0.005493	-0.012054
39.178	0.004425	-0.045166	0.004425	-0.019226	-0.006714	0	-0.11734	-0.001526	-0.005188	-0.019379	0.034332	0.001831	0.022583	-0.016174	0.06134	0.010681	-0.085144	-0.030212	0.41946	-0.039215	0.062103	0.14511	-0.03891	-0.16022	0.12283	-0.02121	0.24735	-0.024872	0.001068	0.12848	-0.006714	-0.01236
39.179	-0.008698	-0.051422	-0.010376	0.014191	-0.038147	-0.003357	-0.14023	-0.000916	0.001984	-0.016479	-0.064087	0.006256	-0.001526	-0.042877	0.039978	0.009003	-0.050659	0.022736	0.76904	-0.13229	0.029449	0.21011	0.061798	-0.059052	0.14938	-0.025635	0.14862	-0.016327	-0.027924	0.070801	-0.001831	-0.013733
39.18	-0.006561	-0.021515	0.015106	0.012817	-0.068207	-0.027618	-0.13321	0.001984	0.003357	-0.026703	-0.040588	-0.000153	-0.012054	-0.013733	0.049591	0.001068	-0.012665	0.041199	0.48584	-0.20889	0.015717	0.17578	0.13657	-0.16113	0.004425	-0.053406	0.073395	0.014954	-0.14313	-0.084534	-0.002594	-0.018616
39.181	0.002899	-0.022278	-0.00824	0.002899	-0.090942	-0.088959	-0.13123	-0.000458	0.005035	-0.026245	0.040436	-0.000458	-0.001221	-0.018311	-0.0737	0.005646	0.005493	0.028839	0.18631	-0.19287	-0.003357	0.024414	0.06958	-0.085907	-0.033417	-0.0354	0.040283	0.021057	-0.11459	-0.11871	-0.003357	-0.009003
39.182	0.009613	-0.020599	-0.030975	0.022736	-0.004578	-0.13412	-0.16068	-0.003204	-0.001221	-0.040588	0.13321	0.001678	0.004272	-0.033264	0.18539	-0.00061	-0.01358	-0.037231	-0.35416	-0.054779	-0.002289	0.019379	-0.032349	0.048828	0.070648	-0.026703	0.13473	-0.002899	-0.12604	-0.21835	-0.000916	-0.008392
